<svg width="1140" height="704" viewBox="0 0 1140 704" fill="none" xmlns="http://www.w3.org/2000/svg">
<g clip-path="url(#clip0_4505_51845)">
<mask id="mask0_4505_51845" style="mask-type:alpha" maskUnits="userSpaceOnUse" x="0" y="-1" width="1141" height="706">
<rect y="-1" width="1140.26" height="705.559" fill="#212C4D"/>
</mask>
<g mask="url(#mask0_4505_51845)">
<g filter="url(#filter0_f_4505_51845)">
<path d="M841.138 457.664C841.138 650.702 513.597 914.291 320.558 914.291C127.519 914.291 -161.736 484.675 -161.736 291.636C-161.736 98.5979 167.459 366.471 360.498 366.471C553.536 366.471 841.138 264.625 841.138 457.664Z" fill="#7724FF" fill-opacity="0.2"/>
</g>
<g filter="url(#filter1_f_4505_51845)">
<path d="M1405.5 227.321C1471.52 408.718 1216.85 786.548 1035.45 852.571C854.054 918.594 517.057 674.131 451.034 492.734C385.011 311.337 652.442 403.083 833.839 337.059C1015.24 271.036 1339.47 45.9245 1405.5 227.321Z" fill="#2F37FF" fill-opacity="0.18"/>
</g>
<g filter="url(#filter2_f_4505_51845)">
<circle cx="589.946" cy="719.183" r="259.683" fill="#2FA7FF" fill-opacity="0.18"/>
</g>
</g>
</g>
<defs>
<filter id="filter0_f_4505_51845" x="-315.736" y="67.7109" width="1310.88" height="1000.58" filterUnits="userSpaceOnUse" color-interpolation-filters="sRGB">
<feFlood flood-opacity="0" result="BackgroundImageFix"/>
<feBlend mode="normal" in="SourceGraphic" in2="BackgroundImageFix" result="shape"/>
<feGaussianBlur stdDeviation="77" result="effect1_foregroundBlur_4505_51845"/>
</filter>
<filter id="filter1_f_4505_51845" x="276.779" y="-5.86804" width="1303.39" height="1033.47" filterUnits="userSpaceOnUse" color-interpolation-filters="sRGB">
<feFlood flood-opacity="0" result="BackgroundImageFix"/>
<feBlend mode="normal" in="SourceGraphic" in2="BackgroundImageFix" result="shape"/>
<feGaussianBlur stdDeviation="82" result="effect1_foregroundBlur_4505_51845"/>
</filter>
<filter id="filter2_f_4505_51845" x="106.264" y="235.5" width="967.365" height="967.365" filterUnits="userSpaceOnUse" color-interpolation-filters="sRGB">
<feFlood flood-opacity="0" result="BackgroundImageFix"/>
<feBlend mode="normal" in="SourceGraphic" in2="BackgroundImageFix" result="shape"/>
<feGaussianBlur stdDeviation="112" result="effect1_foregroundBlur_4505_51845"/>
</filter>
<clipPath id="clip0_4505_51845">
<rect width="1140" height="704" fill="white"/>
</clipPath>
</defs>
</svg>
